# Blender v2.82 (sub 7) OBJ File: ''
# www.blender.org
mtllib brick2.mtl
o briks.005
v 0.740329 -0.367899 -1.052768
v 0.041589 -0.367899 -1.052734
v 0.041589 -0.351820 -1.059395
v 0.740970 -0.351820 -1.059395
v 0.041589 -0.367899 1.023541
v 0.740329 -0.367899 1.023575
v 0.740970 -0.351821 1.030202
v 0.041589 -0.351821 1.030202
v 0.785477 -0.367899 -1.043886
v 0.787999 -0.351820 -1.050038
v 0.018846 0.351822 -1.036656
v 0.018846 0.351822 1.007463
v 0.025511 0.367900 1.007463
v 0.025511 0.367900 -1.036656
v 0.041589 0.374561 1.007463
v 0.041589 0.374561 -1.036656
v 0.018846 -0.351821 1.007463
v 0.025511 -0.351821 1.023541
v 0.025511 0.351822 1.023541
v 0.041589 0.351822 1.030202
v 0.848395 0.367900 -0.980966
v 0.857243 0.367900 -0.935827
v 0.863871 0.351822 -0.936478
v 0.854533 0.351822 -0.983515
v 0.823167 -0.367899 -1.018684
v 0.827873 -0.351820 -1.023394
v 0.018846 -0.351820 -1.036656
v 0.025511 0.351822 -1.052734
v 0.025511 -0.351820 -1.052734
v 0.041589 0.351822 -1.059395
v 0.848395 -0.367899 0.951773
v 0.857243 -0.367899 0.906630
v 0.863871 -0.351821 0.907285
v 0.854533 -0.351821 0.954322
v 0.785477 -0.367899 1.014692
v 0.823167 -0.367899 0.989491
v 0.827873 -0.351821 0.994201
v 0.787999 -0.351821 1.020845
v 0.041589 0.367900 -1.052734
v 0.740329 0.367900 -1.052768
v 0.740970 0.351822 -1.059395
v 0.025511 -0.367899 -1.036656
v 0.025511 -0.367899 1.007463
v 0.041589 -0.374560 -1.036656
v 0.041589 -0.374560 1.007463
v 0.785477 0.367900 -1.043886
v 0.823167 0.367900 -1.018684
v 0.827873 0.351822 -1.023394
v 0.787999 0.351822 -1.050038
v 0.857243 -0.367899 -0.935827
v 0.848395 -0.367899 -0.980966
v 0.854533 -0.351821 -0.983515
v 0.863871 -0.351821 -0.936478
v 0.823167 0.367900 0.989491
v 0.785477 0.367900 1.014692
v 0.787999 0.351822 1.020845
v 0.827873 0.351822 0.994201
v 0.740329 0.367900 1.023575
v 0.041589 0.367900 1.023541
v 0.740970 0.351822 1.030202
v 0.841241 -0.374560 0.905056
v 0.841241 -0.374560 -0.934249
v 0.833522 -0.374560 -0.974814
v 0.811796 -0.374560 -1.007313
v 0.848395 0.367900 0.951773
v 0.854533 0.351822 0.954322
v 0.863871 0.351822 0.907285
v 0.857243 0.367900 0.906630
v 0.841241 0.374561 -0.934249
v 0.841241 0.374561 0.905056
v 0.811796 0.374561 -1.007313
v 0.833522 0.374561 -0.974814
v 0.027695 -0.365677 -1.050516
v 0.027695 -0.365677 1.021319
v 0.027695 0.365682 -1.050516
v 0.027695 0.365682 1.021319
v 0.833522 0.374561 0.945620
v 0.779300 0.374561 -1.029031
v 0.811796 0.374561 0.978119
v 0.738748 0.374561 -1.036765
v 0.779300 0.374561 0.999838
v 0.738748 0.374561 1.007572
v 0.833522 -0.374560 0.945620
v 0.811796 -0.374560 0.978119
v 0.779300 -0.374560 -1.029031
v 0.779300 -0.374560 0.999838
v 0.738748 -0.374560 -1.036765
v 0.738748 -0.374560 1.007572
v -0.857206 -0.367899 0.935823
v -0.848356 -0.367899 0.980966
v -0.854494 -0.351821 0.983515
v -0.863870 -0.351821 0.936478
v -0.041550 -0.367899 -1.023541
v -0.740290 -0.367899 -1.023575
v -0.740931 -0.351820 -1.030202
v -0.041550 -0.351820 -1.030202
v -0.785437 -0.367899 -1.014693
v -0.823129 -0.367899 -0.989491
v -0.827836 -0.351821 -0.994202
v -0.787960 -0.351821 -1.020845
v -0.848356 -0.367899 -0.951773
v -0.857206 -0.367899 -0.906630
v -0.863870 -0.351821 -0.907286
v -0.854494 -0.351821 -0.954323
v -0.823129 0.367900 -0.989491
v -0.785437 0.367900 -1.014693
v -0.787960 0.351822 -1.020845
v -0.827836 0.351822 -0.994202
v -0.740290 0.367900 1.052768
v -0.785437 0.367900 1.043885
v -0.787960 0.351822 1.050038
v -0.740931 0.351822 1.059395
v -0.740290 0.367900 -1.023575
v -0.740931 0.351822 -1.030202
v -0.823129 0.367900 1.018684
v -0.827836 0.351822 1.023394
v -0.740290 -0.367899 1.052768
v -0.041550 -0.367899 1.052734
v -0.041550 -0.351821 1.059395
v -0.740931 -0.351821 1.059395
v -0.823129 -0.367899 1.018684
v -0.785437 -0.367899 1.043885
v -0.787960 -0.351821 1.050038
v -0.827836 -0.351821 1.023394
v -0.738709 0.374561 -1.007572
v -0.041550 0.374561 -1.007463
v -0.041550 0.367900 -1.023541
v -0.041550 0.351822 -1.030202
v -0.841240 -0.374560 -0.905056
v -0.841240 -0.374560 0.934249
v -0.041550 0.374561 1.036656
v -0.025473 0.367900 1.036656
v -0.025473 0.367900 -1.007463
v -0.018808 0.351822 1.036656
v -0.018808 0.351822 -1.007463
v -0.857206 0.367900 -0.906630
v -0.848356 0.367900 -0.951773
v -0.854494 0.351822 -0.954323
v -0.863870 0.351822 -0.907286
v -0.848356 0.367900 0.980966
v -0.857206 0.367900 0.935823
v -0.863870 0.351822 0.936478
v -0.854494 0.351822 0.983515
v -0.811757 -0.374560 -0.978120
v -0.833484 -0.374560 -0.945621
v -0.041550 0.351822 1.059395
v -0.025473 -0.351821 1.052734
v -0.025473 0.351822 1.052734
v -0.018808 -0.351821 1.036656
v -0.018808 -0.351821 -1.007463
v -0.025473 -0.351820 -1.023541
v -0.025473 0.351822 -1.023541
v -0.841240 0.374561 0.934249
v -0.841240 0.374561 -0.905056
v -0.041550 0.367900 1.052734
v -0.025473 -0.367899 1.036656
v -0.025473 -0.367899 -1.007463
v -0.041550 -0.374560 1.036656
v -0.041550 -0.374560 -1.007463
v -0.027694 -0.365677 -1.021324
v -0.027694 -0.365677 1.050512
v -0.027694 0.365682 -1.021324
v -0.027694 0.365682 1.050512
v -0.779262 0.374561 -0.999838
v -0.738709 0.374561 1.036765
v -0.811757 0.374561 -0.978120
v -0.779262 0.374561 1.029031
v -0.811757 0.374561 1.007312
v -0.833484 0.374561 -0.945621
v -0.833484 0.374561 0.974813
v -0.833484 -0.374560 0.974813
v -0.779262 -0.374560 -0.999838
v -0.811757 -0.374560 1.007312
v -0.738709 -0.374560 -1.007572
v -0.779262 -0.374560 1.029031
v -0.738709 -0.374560 1.036765
vt 0.515756 0.798044
vt 0.517286 0.842661
vt 0.516201 0.842696
vt 0.514669 0.798047
vt 0.508962 0.610153
vt 0.510597 0.655115
vt 0.509504 0.655193
vt 0.507869 0.610199
vt 0.515678 0.794946
vt 0.514567 0.794980
vt 0.458678 0.478083
vt 0.463579 0.609681
vt 0.462486 0.609724
vt 0.457586 0.478125
vt 0.461394 0.609766
vt 0.456494 0.478168
vt 0.507784 0.607955
vt 0.507833 0.609078
vt 0.463614 0.610805
vt 0.463661 0.611925
vt 0.469280 0.790578
vt 0.469177 0.787470
vt 0.470268 0.787466
vt 0.470392 0.790534
vt 0.515581 0.791872
vt 0.514466 0.791911
vt 0.502898 0.476358
vt 0.458628 0.476960
vt 0.502864 0.475235
vt 0.516245 0.843806
vt 0.472409 0.845467
vt 0.472373 0.844357
vt 0.510943 0.664396
vt 0.511027 0.667508
vt 0.509936 0.667510
vt 0.509827 0.664433
vt 0.510727 0.658229
vt 0.510838 0.661312
vt 0.509611 0.658273
vt 0.471289 0.844402
vt 0.469678 0.799807
vt 0.470762 0.799730
vt 0.503990 0.476315
vt 0.508876 0.607912
vt 0.505082 0.476273
vt 0.509969 0.607869
vt 0.469531 0.796717
vt 0.469402 0.793649
vt 0.470516 0.793601
vt 0.470640 0.796667
vt 0.515351 0.785687
vt 0.515478 0.788797
vt 0.514364 0.788839
vt 0.514263 0.785768
vt 0.464497 0.663114
vt 0.464380 0.660032
vt 0.465495 0.659989
vt 0.465616 0.663068
vt 0.464279 0.656919
vt 0.462568 0.611964
vt 0.465374 0.656911
vt 0.556671 0.480757
vt 0.561076 0.599377
vt 0.559983 0.599318
vt 0.555585 0.480901
vt 0.509719 0.661353
vt 0.555002 0.478308
vt 0.553559 0.476269
vt 0.554308 0.475442
vt 0.556002 0.477839
vt 0.464622 0.666195
vt 0.465736 0.666146
vt 0.465855 0.669222
vt 0.464767 0.669304
vt 0.409801 0.605283
vt 0.405385 0.486657
vt 0.406478 0.486717
vt 0.410886 0.605138
vt 0.408154 0.481940
vt 0.406867 0.484086
vt 0.405835 0.483696
vt 0.407346 0.481173
vt 0.517184 0.843633
vt 0.503954 0.475338
vt 0.505032 0.475150
vt 0.508913 0.608890
vt 0.510002 0.608993
vt 0.508791 0.609182
vt 0.456460 0.477044
vt 0.457550 0.477147
vt 0.471459 0.845365
vt 0.462667 0.610983
vt 0.462523 0.610702
vt 0.461444 0.610890
vt 0.411470 0.607731
vt 0.410469 0.608201
vt 0.409686 0.479438
vt 0.410145 0.480462
vt 0.412164 0.610597
vt 0.412912 0.609770
vt 0.412534 0.478753
vt 0.412676 0.479865
vt 0.415007 0.611089
vt 0.414626 0.612146
vt 0.417517 0.612607
vt 0.417575 0.611487
vt 0.560626 0.602339
vt 0.559594 0.601948
vt 0.559115 0.604861
vt 0.558307 0.604094
vt 0.551465 0.474951
vt 0.551846 0.473894
vt 0.556775 0.606596
vt 0.556316 0.605572
vt 0.548956 0.473432
vt 0.548897 0.474553
vt 0.553927 0.607282
vt 0.553786 0.606169
vt 0.451049 0.077768
vt 0.450914 0.074654
vt 0.452030 0.074608
vt 0.452140 0.077688
vt 0.457408 0.253599
vt 0.455772 0.208614
vt 0.456865 0.208536
vt 0.458508 0.253549
vt 0.455641 0.205499
vt 0.455528 0.202413
vt 0.456648 0.202371
vt 0.456757 0.205454
vt 0.455422 0.199327
vt 0.455335 0.196210
vt 0.456428 0.196208
vt 0.456539 0.199289
vt 0.501938 0.200650
vt 0.502048 0.203736
vt 0.500932 0.203776
vt 0.500818 0.200693
vt 0.496931 0.063610
vt 0.497066 0.066721
vt 0.495950 0.066767
vt 0.495839 0.063688
vt 0.502143 0.206852
vt 0.501047 0.206858
vt 0.497182 0.069805
vt 0.496063 0.069848
vt 0.450601 0.065373
vt 0.448973 0.020459
vt 0.450065 0.020421
vt 0.451696 0.065367
vt 0.450800 0.071570
vt 0.450692 0.068485
vt 0.451808 0.068447
vt 0.451919 0.071527
vt 0.548687 0.252332
vt 0.504938 0.254009
vt 0.504890 0.252884
vt 0.548747 0.251214
vt 0.503791 0.251834
vt 0.502691 0.251868
vt 0.409689 0.382729
vt 0.405385 0.264289
vt 0.406476 0.264350
vt 0.410773 0.382586
vt 0.509710 0.385401
vt 0.508619 0.385443
vt 0.503848 0.254052
vt 0.507529 0.385484
vt 0.502758 0.254097
vt 0.501682 0.194449
vt 0.501820 0.197564
vt 0.500704 0.197611
vt 0.500591 0.194530
vt 0.497291 0.072890
vt 0.497382 0.076006
vt 0.496288 0.076008
vt 0.496175 0.072929
vt 0.408154 0.259582
vt 0.406867 0.261723
vt 0.405836 0.261333
vt 0.407348 0.258816
vt 0.494209 0.018740
vt 0.450020 0.019303
vt 0.494172 0.017622
vt 0.507578 0.386606
vt 0.463408 0.388290
vt 0.463375 0.387168
vt 0.458602 0.255777
vt 0.458552 0.254665
vt 0.502728 0.252984
vt 0.556443 0.258534
vt 0.560742 0.376969
vt 0.559650 0.376908
vt 0.555359 0.258677
vt 0.495300 0.018695
vt 0.462285 0.387210
vt 0.457512 0.255815
vt 0.461194 0.387251
vt 0.456422 0.255856
vt 0.457516 0.254751
vt 0.456388 0.254730
vt 0.449074 0.019478
vt 0.462320 0.388186
vt 0.461243 0.388373
vt 0.503767 0.252991
vt 0.509742 0.386523
vt 0.508655 0.386419
vt 0.495129 0.017725
vt 0.551632 0.251677
vt 0.551250 0.252732
vt 0.553457 0.383743
vt 0.553597 0.384854
vt 0.554089 0.253225
vt 0.553340 0.254051
vt 0.558779 0.382442
vt 0.556441 0.384172
vt 0.555984 0.383149
vt 0.557973 0.381675
vt 0.555778 0.255620
vt 0.554779 0.256088
vt 0.560290 0.379925
vt 0.559260 0.379534
vt 0.411353 0.385175
vt 0.410354 0.385643
vt 0.409685 0.257085
vt 0.410142 0.258109
vt 0.412792 0.387212
vt 0.412044 0.388038
vt 0.412529 0.256403
vt 0.412670 0.257514
vt 0.414882 0.388531
vt 0.414501 0.389586
vt 0.417386 0.390049
vt 0.417446 0.388931
vn 0.0898 -0.3802 -0.9205
vn -0.1817 -0.3755 -0.9088
vn -0.1920 -0.1915 -0.9625
vn 0.0957 -0.1939 -0.9764
vn -0.1818 -0.3763 0.9085
vn 0.0890 -0.3847 0.9188
vn 0.0955 -0.1960 0.9760
vn -0.1920 -0.1920 0.9624
vn 0.3527 -0.3827 -0.8539
vn 0.3749 -0.1953 -0.9063
vn -0.9624 0.1920 -0.1920
vn -0.9624 0.1920 0.1920
vn -0.9085 0.3763 0.1817
vn -0.9085 0.3763 -0.1817
vn -0.3763 0.9085 -0.1817
vn -0.3763 0.9085 0.1817
vn -0.1920 0.9624 0.1920
vn -0.1920 0.9624 -0.1920
vn -0.9624 -0.1920 0.1920
vn -0.9085 -0.1818 0.3763
vn -0.9085 0.1817 0.3763
vn -0.3763 0.1817 0.9085
vn -0.3763 -0.1817 0.9085
vn -0.1919 0.1915 0.9625
vn 0.8539 0.3827 -0.3527
vn 0.9205 0.3804 -0.0898
vn 0.9764 0.1938 -0.0957
vn 0.9063 0.1953 -0.3749
vn 0.6533 -0.3823 -0.6534
vn 0.6935 -0.1953 -0.6935
vn -0.9624 -0.1920 -0.1920
vn -0.9085 0.1818 -0.3763
vn -0.9085 -0.1817 -0.3763
vn -0.3763 -0.1817 -0.9085
vn -0.3763 0.1817 -0.9085
vn -0.1920 0.1920 -0.9624
vn 0.8540 -0.3825 0.3526
vn 0.9205 -0.3802 0.0898
vn 0.9764 -0.1938 0.0957
vn 0.9063 -0.1953 0.3748
vn 0.3529 -0.3843 0.8531
vn 0.6531 -0.3830 0.6533
vn 0.3751 -0.1960 0.9060
vn -0.1818 0.3763 -0.9085
vn 0.0896 0.3835 -0.9192
vn 0.0956 0.1956 -0.9760
vn -0.9085 -0.3763 -0.1817
vn -0.9085 -0.3763 0.1817
vn -0.3763 -0.9085 0.1817
vn -0.3763 -0.9085 -0.1817
vn -0.1920 -0.9624 -0.1920
vn -0.1920 -0.9624 0.1920
vn 0.3524 0.3852 -0.8529
vn 0.6533 0.3823 -0.6534
vn 0.6935 0.1953 -0.6935
vn 0.3748 0.1967 -0.9060
vn 0.9195 -0.3826 -0.0896
vn 0.8529 -0.3852 -0.3524
vn 0.9060 -0.1967 -0.3748
vn 0.9761 -0.1952 -0.0956
vn 0.6533 0.3827 0.6533
vn 0.3527 0.3827 0.8539
vn 0.3749 0.1953 0.9063
vn 0.6935 0.1953 0.6935
vn 0.0898 0.3802 0.9205
vn -0.1818 0.3755 0.9088
vn 0.0957 0.1938 0.9764
vn 0.3809 -0.9239 -0.0371
vn 0.3808 -0.9239 0.0371
vn 0.2583 -0.9657 0.0252
vn 0.2583 -0.9657 -0.0249
vn 0.6976 -0.1906 0.6907
vn 0.1788 -0.9811 -0.0741
vn 0.1377 -0.9808 -0.1377
vn 0.2705 -0.9239 -0.2705
vn 0.3513 -0.9249 -0.1455
vn 0.8529 0.3852 0.3524
vn 0.9060 0.1967 0.3748
vn 0.9761 0.1952 0.0956
vn 0.9195 0.3827 0.0896
vn 0.3810 0.9238 0.0371
vn 0.3810 0.9238 -0.0371
vn 0.2583 0.9657 -0.0252
vn 0.2583 0.9657 0.0249
vn 0.1377 0.9808 -0.1377
vn 0.1788 0.9811 -0.0741
vn 0.3512 0.9249 -0.1456
vn 0.2705 0.9239 -0.2705
vn -0.3574 -0.3574 -0.8628
vn -0.3574 -0.8628 -0.3574
vn -0.1817 -0.9085 -0.3763
vn -0.8628 -0.3575 -0.3574
vn -0.8628 -0.3575 0.3574
vn -0.1817 -0.9085 0.3763
vn -0.3574 -0.8629 0.3574
vn -0.3574 -0.3574 0.8629
vn -0.1817 0.9085 -0.3763
vn -0.3574 0.8629 -0.3574
vn -0.3574 0.3574 -0.8629
vn -0.8628 0.3575 -0.3574
vn -0.3574 0.3574 0.8629
vn -0.3574 0.8629 0.3574
vn -0.1817 0.9085 0.3763
vn -0.8628 0.3575 0.3574
vn 0.1788 0.9811 0.0741
vn 0.3513 0.9249 0.1455
vn 0.1456 0.9249 -0.3513
vn 0.0741 0.9811 -0.1787
vn 0.2705 0.9239 0.2705
vn 0.1377 0.9808 0.1377
vn 0.0371 0.9242 -0.3801
vn 0.0189 0.9809 -0.1937
vn 0.0741 0.9811 0.1787
vn 0.1456 0.9249 0.3512
vn 0.0371 0.9242 0.3801
vn 0.0189 0.9809 0.1937
vn 0.3512 -0.9249 0.1456
vn 0.1788 -0.9811 0.0741
vn 0.2705 -0.9239 0.2705
vn 0.1377 -0.9808 0.1377
vn 0.0741 -0.9811 -0.1787
vn 0.1456 -0.9249 -0.3513
vn 0.1463 -0.9243 0.3524
vn 0.0743 -0.9810 0.1791
vn 0.0371 -0.9242 -0.3801
vn 0.0189 -0.9809 -0.1937
vn 0.0367 -0.9245 0.3795
vn 0.0185 -0.9810 0.1930
vn -0.9195 -0.3827 0.0896
vn -0.8529 -0.3853 0.3524
vn -0.9060 -0.1967 0.3748
vn -0.9761 -0.1952 0.0956
vn 0.1817 -0.3763 -0.9085
vn -0.0896 -0.3834 -0.9192
vn -0.0956 -0.1956 -0.9760
vn 0.1920 -0.1920 -0.9624
vn -0.3524 -0.3852 -0.8529
vn -0.6533 -0.3826 -0.6533
vn -0.6935 -0.1954 -0.6935
vn -0.3748 -0.1967 -0.9060
vn -0.8539 -0.3828 -0.3527
vn -0.9205 -0.3802 -0.0898
vn -0.9764 -0.1938 -0.0957
vn -0.9063 -0.1953 -0.3749
vn -0.6533 0.3827 -0.6533
vn -0.3527 0.3827 -0.8539
vn -0.3749 0.1953 -0.9063
vn -0.6935 0.1953 -0.6935
vn -0.0896 0.3834 0.9192
vn -0.3525 0.3851 0.8529
vn -0.3748 0.1967 0.9060
vn -0.0956 0.1956 0.9760
vn -0.0898 0.3801 -0.9206
vn -0.0957 0.1937 -0.9764
vn -0.6533 0.3823 0.6534
vn -0.6935 0.1954 0.6935
vn -0.0898 -0.3802 0.9205
vn 0.1817 -0.3755 0.9088
vn 0.1920 -0.1915 0.9625
vn -0.0957 -0.1938 0.9764
vn -0.6533 -0.3823 0.6534
vn -0.3526 -0.3826 0.8540
vn -0.3749 -0.1953 0.9063
vn -0.6935 -0.1954 0.6935
vn -0.0189 0.9808 -0.1941
vn 0.1920 0.9624 -0.1924
vn 0.1818 0.9082 -0.3771
vn -0.0371 0.9239 -0.3809
vn 0.1817 0.3755 -0.9088
vn 0.1920 0.1915 -0.9625
vn -0.3809 -0.9239 0.0371
vn -0.3809 -0.9239 -0.0371
vn -0.2583 -0.9657 -0.0252
vn -0.2583 -0.9657 0.0249
vn 0.1919 0.9625 0.1919
vn 0.3763 0.9085 0.1817
vn 0.3763 0.9085 -0.1817
vn 0.9085 0.3762 -0.1817
vn 0.9085 0.3763 0.1817
vn 0.9625 0.1919 0.1919
vn 0.9625 0.1919 -0.1919
vn -0.9195 0.3827 -0.0896
vn -0.8529 0.3852 -0.3524
vn -0.9060 0.1967 -0.3748
vn -0.9761 0.1952 -0.0956
vn -0.8539 0.3827 0.3527
vn -0.9205 0.3803 0.0898
vn -0.9764 0.1938 0.0957
vn -0.9063 0.1953 0.3749
vn -0.1377 -0.9808 -0.1377
vn -0.1788 -0.9811 -0.0741
vn -0.3512 -0.9249 -0.1456
vn -0.2705 -0.9239 -0.2705
vn 0.1920 0.1920 0.9624
vn 0.3763 -0.1817 0.9085
vn 0.3763 0.1817 0.9085
vn 0.9085 0.1817 0.3763
vn 0.9085 -0.1817 0.3763
vn 0.9625 -0.1919 0.1919
vn 0.9625 -0.1919 -0.1919
vn 0.9085 -0.1817 -0.3763
vn 0.9085 0.1817 -0.3763
vn 0.3763 0.1817 -0.9085
vn 0.3763 -0.1817 -0.9085
vn -0.3809 0.9239 -0.0371
vn -0.3809 0.9239 0.0371
vn -0.2583 0.9657 0.0252
vn -0.2583 0.9657 -0.0249
vn 0.1817 0.3763 0.9085
vn 0.9085 -0.3763 0.1817
vn 0.9085 -0.3763 -0.1817
vn 0.3763 -0.9085 -0.1817
vn 0.3763 -0.9085 0.1817
vn 0.1920 -0.9624 0.1920
vn 0.1920 -0.9624 -0.1920
vn 0.8629 -0.3574 -0.3574
vn 0.1817 -0.9085 -0.3763
vn 0.3574 -0.8629 -0.3574
vn 0.3574 -0.3574 -0.8629
vn 0.3574 -0.3574 0.8629
vn 0.3574 -0.8629 0.3574
vn 0.1817 -0.9085 0.3763
vn 0.8629 -0.3574 0.3574
vn 0.3574 0.3574 -0.8629
vn 0.3574 0.8629 -0.3574
vn 0.8629 0.3573 -0.3574
vn 0.1817 0.9085 0.3763
vn 0.3574 0.8629 0.3574
vn 0.3574 0.3574 0.8629
vn 0.8629 0.3574 0.3574
vn -0.1456 0.9249 -0.3512
vn -0.0741 0.9811 -0.1787
vn -0.0189 0.9809 0.1937
vn -0.0371 0.9242 0.3801
vn -0.2705 0.9239 -0.2705
vn -0.1377 0.9808 -0.1377
vn -0.2705 0.9239 0.2705
vn -0.1456 0.9249 0.3514
vn -0.0741 0.9811 0.1787
vn -0.1377 0.9808 0.1377
vn -0.3512 0.9249 -0.1456
vn -0.1788 0.9811 -0.0741
vn -0.3512 0.9249 0.1456
vn -0.1788 0.9811 0.0741
vn -0.1788 -0.9811 0.0741
vn -0.3512 -0.9249 0.1456
vn -0.1456 -0.9249 -0.3512
vn -0.0741 -0.9811 -0.1787
vn -0.1377 -0.9808 0.1377
vn -0.2705 -0.9239 0.2705
vn -0.0371 -0.9242 -0.3801
vn -0.0189 -0.9809 -0.1937
vn -0.0741 -0.9811 0.1787
vn -0.1456 -0.9249 0.3512
vn -0.0371 -0.9242 0.3801
vn -0.0189 -0.9809 0.1937
usemtl toy3_yellow.002
s 1
f 1/1/1 2/2/2 3/3/3 4/4/4
f 5/5/5 6/6/6 7/7/7 8/8/8
f 9/9/9 1/1/1 4/4/4 10/10/10
f 11/11/11 12/12/12 13/13/13 14/14/14
f 14/14/15 13/13/16 15/15/17 16/16/18
f 12/12/12 17/17/19 18/18/20 19/19/21
f 19/19/22 18/18/23 8/8/8 20/20/24
f 21/21/25 22/22/26 23/23/27 24/24/28
f 25/25/29 9/9/9 10/10/10 26/26/30
f 27/27/31 11/11/11 28/28/32 29/29/33
f 29/30/34 28/31/35 30/32/36 3/3/3
f 31/33/37 32/34/38 33/35/39 34/36/40
f 35/37/41 36/38/42 38/39/43
f 39/40/44 40/41/45 41/42/46 30/32/36
f 17/17/19 27/27/31 42/43/47 43/44/48
f 43/44/49 42/43/50 44/45/51 45/46/52
f 46/47/53 47/48/54 48/49/55 49/50/56
f 50/51/57 51/52/58 52/53/59 53/54/60
f 54/55/61 55/56/62 56/57/63 57/58/64
f 58/59/65 59/60/66 20/20/24 60/61/67
f 53/54/60 33/35/39 32/34/38 50/51/57
f 50/62/68 32/63/69 61/64/70 62/65/71
f 36/38/42 31/33/37 37/66/72
f 40/41/45 46/47/53 49/50/56 41/42/46
f 63/67/73 64/68/74 25/69/75 51/70/76
f 51/52/58 25/25/29 26/26/30 52/53/59
f 55/56/62 58/59/65 60/61/67 56/57/63
f 65/71/77 54/55/61 57/58/64 66/72/78
f 67/73/79 23/23/27 22/22/26 68/74/80
f 68/75/81 22/76/82 69/77/83 70/78/84
f 71/79/85 72/80/86 21/81/87 47/82/88
f 47/48/54 21/21/25 24/24/28 48/49/55
f 6/6/6 35/37/41 7/7/7
f 68/74/80 65/71/77 66/72/78 67/73/79
f 3/3/3 2/2/2 73/83/89 29/30/34
f 44/45/51 42/43/50 73/84/90 2/85/91
f 27/27/31 29/29/33 73/84/92 42/43/47
f 17/17/19 43/44/48 74/86/93 18/18/20
f 45/46/52 5/87/94 74/86/95 43/44/49
f 8/8/8 18/18/23 74/88/96 5/5/5
f 16/16/18 39/89/97 75/90/98 14/14/15
f 30/32/36 28/31/35 75/91/99 39/40/44
f 11/11/11 14/14/14 75/90/100 28/28/32
f 20/20/24 59/60/66 76/92/101 19/19/22
f 15/15/17 13/13/16 76/93/102 59/94/103
f 12/12/12 19/19/21 76/93/104 13/13/13
f 11/11/11 27/27/31 17/17/19 12/12/12
f 53/54/60 52/53/59 24/24/28 23/23/27
f 52/53/59 26/26/30 48/49/55 24/24/28
f 26/26/30 10/10/10 49/50/56 48/49/55
f 10/10/10 4/4/4 41/42/46 49/50/56
f 7/7/7 38/39/43 56/57/63 60/61/67
f 38/39/43 37/66/72 56/57/63
f 37/66/72 34/36/40 66/72/78 57/58/64
f 34/36/40 33/35/39 67/73/79 66/72/78
f 33/35/39 53/54/60 23/23/27 67/73/79
f 4/4/4 3/3/3 30/32/36 41/42/46
f 60/61/67 20/20/24 8/8/8 7/7/7
f 22/76/82 21/81/87 72/80/86 69/77/83
f 68/75/81 70/78/84 77/95/105 65/96/106
f 72/80/86 77/95/105 70/78/84 69/77/83
f 47/82/88 46/97/107 78/98/108 71/79/85
f 54/99/109 65/96/106 77/95/105 79/100/110
f 71/79/85 79/100/110 77/95/105 72/80/86
f 40/101/111 80/102/112 78/98/108 46/97/107
f 54/99/109 79/100/110 81/103/113 55/104/114
f 78/98/108 81/103/113 79/100/110 71/79/85
f 39/89/97 16/16/18 80/102/112 40/101/111
f 59/94/103 58/105/115 82/106/116 15/15/17
f 58/105/115 55/104/114 81/103/113 82/106/116
f 80/102/112 82/106/116 81/103/113 78/98/108
f 82/106/116 80/102/112 16/16/18 15/15/17
f 32/63/69 31/107/117 83/108/118 61/64/70
f 50/62/68 62/65/71 63/67/73 51/70/76
f 36/109/119 84/110/120 83/108/118 31/107/117
f 83/108/118 63/67/73 62/65/71 61/64/70
f 25/69/75 64/68/74 85/111/121 9/112/122
f 36/109/119 35/113/123 86/114/124 84/110/120
f 84/110/120 64/68/74 63/67/73 83/108/118
f 1/115/125 9/112/122 85/111/121 87/116/126
f 6/117/127 88/118/128 86/114/124
f 86/114/124 85/111/121 64/68/74 84/110/120
f 2/85/91 1/115/125 87/116/126 44/45/51
f 5/87/94 45/46/52 88/118/128 6/117/127
f 88/118/128 87/116/126 85/111/121 86/114/124
f 87/116/126 88/118/128 45/46/52 44/45/51
f 7/7/7 35/37/41 38/39/43
f 38/39/43 36/38/42 37/66/72
f 56/57/63 37/66/72 57/58/64
f 86/114/124 35/113/123 6/117/127
f 37/66/72 31/33/37 34/36/40
usemtl toy3_green.002
f 89/119/129 90/120/130 91/121/131 92/122/132
f 93/123/133 94/124/134 95/125/135 96/126/136
f 97/127/137 98/128/138 99/129/139 100/130/140
f 101/131/141 102/132/142 103/133/143 104/134/144
f 105/135/145 106/136/146 107/137/147 108/138/148
f 109/139/149 110/140/150 111/141/151 112/142/152
f 106/136/146 113/143/153 114/144/154 107/137/147
f 110/140/150 115/145/155 116/146/156 111/141/151
f 94/124/134 97/127/137 100/130/140 95/125/135
f 117/147/157 118/148/158 119/149/159 120/150/160
f 121/151/161 122/152/162 123/153/163 124/154/164
f 125/155/165 126/156/166 127/157/167 113/158/168
f 113/143/153 127/159/169 128/160/170 114/144/154
f 92/122/132 103/133/143 102/132/142 89/119/129
f 89/161/171 102/162/172 129/163/173 130/164/174
f 126/156/166 131/165/175 132/166/176 133/167/177
f 133/167/178 132/166/179 134/168/180 135/169/181
f 136/170/182 137/171/183 138/172/184 139/173/185
f 140/174/186 141/175/187 142/176/188 143/177/189
f 144/178/190 145/179/191 101/180/192 98/181/193
f 98/128/138 101/131/141 104/134/144 99/129/139
f 137/171/183 105/135/145 108/138/148 138/172/184
f 146/182/194 119/149/159 147/183/195 148/184/196
f 148/185/197 147/186/198 149/187/199 134/168/180
f 115/145/155 140/174/186 143/177/189 116/146/156
f 122/152/162 117/147/157 120/150/160 123/153/163
f 135/169/181 150/188/200 151/189/201 152/190/202
f 152/190/203 151/189/204 96/126/136 128/160/170
f 139/173/185 142/176/188 141/175/187 136/170/182
f 136/191/205 141/192/206 153/193/207 154/194/208
f 90/120/130 121/151/161 124/154/164 91/121/131
f 155/195/209 109/139/149 112/142/152 146/182/194
f 150/188/200 149/187/199 156/196/210 157/197/211
f 157/197/212 156/196/213 158/198/214 159/199/215
f 150/188/200 157/197/211 160/200/216 151/189/201
f 159/199/215 93/201/217 160/200/218 157/197/212
f 96/126/136 151/189/204 160/200/219 93/123/133
f 119/149/159 118/148/158 161/202/220 147/183/195
f 158/198/214 156/196/213 161/203/221 118/204/222
f 149/187/199 147/186/198 161/203/223 156/196/210
f 128/160/170 127/159/169 162/205/224 152/190/203
f 126/156/166 133/167/177 162/205/225 127/157/167
f 135/169/181 152/190/202 162/205/226 133/167/178
f 131/165/175 155/206/227 163/207/228 132/166/176
f 146/182/194 148/184/196 163/208/229 155/195/209
f 134/168/180 132/166/179 163/207/230 148/185/197
f 134/168/180 149/187/199 150/188/200 135/169/181
f 139/173/185 138/172/184 104/134/144 103/133/143
f 138/172/184 108/138/148 99/129/139 104/134/144
f 108/138/148 107/137/147 100/130/140 99/129/139
f 107/137/147 114/144/154 95/125/135 100/130/140
f 112/142/152 111/141/151 123/153/163 120/150/160
f 111/141/151 116/146/156 124/154/164 123/153/163
f 116/146/156 143/177/189 91/121/131 124/154/164
f 143/177/189 142/176/188 92/122/132 91/121/131
f 103/133/143 92/122/132 142/176/188 139/173/185
f 96/126/136 95/125/135 114/144/154 128/160/170
f 146/182/194 112/142/152 120/150/160 119/149/159
f 113/158/168 106/209/231 164/210/232 125/155/165
f 155/206/227 131/165/175 165/211/233 109/212/234
f 125/155/165 165/211/233 131/165/175 126/156/166
f 105/213/235 166/214/236 164/210/232 106/209/231
f 115/215/237 110/216/238 167/217/239 168/218/240
f 109/212/234 165/211/233 167/217/239 110/216/238
f 125/155/165 164/210/232 167/217/239 165/211/233
f 105/213/235 137/219/241 169/220/242 166/214/236
f 164/210/232 166/214/236 168/218/240 167/217/239
f 136/191/205 154/194/208 169/220/242 137/219/241
f 141/192/206 140/221/243 170/222/244 153/193/207
f 115/215/237 168/218/240 170/222/244 140/221/243
f 170/222/244 169/220/242 154/194/208 153/193/207
f 166/214/236 169/220/242 170/222/244 168/218/240
f 89/161/171 130/164/174 171/223/245 90/224/246
f 102/162/172 101/180/192 145/179/191 129/163/173
f 145/179/191 171/223/245 130/164/174 129/163/173
f 97/225/247 172/226/248 144/178/190 98/181/193
f 90/224/246 171/223/245 173/227/249 121/228/250
f 144/178/190 173/227/249 171/223/245 145/179/191
f 94/229/251 174/230/252 172/226/248 97/225/247
f 121/228/250 173/227/249 175/231/253 122/232/254
f 172/226/248 175/231/253 173/227/249 144/178/190
f 93/201/217 159/199/215 174/230/252 94/229/251
f 118/204/222 117/233/255 176/234/256 158/198/214
f 117/233/255 122/232/254 175/231/253 176/234/256
f 174/230/252 176/234/256 175/231/253 172/226/248
f 176/234/256 174/230/252 159/199/215 158/198/214
